# xmcd CD database file
#
# Track frame offsets:
#	150
#	22424
#	35548
#	49798
#	65473
#	77473
#	94047
#	109722
#	127722
#	138385
#	148210
#
# Disc length: 2150 seconds
#
# Revision: 0
# Processed by: cddbd v1.5.2PL0 Copyright (c) Steve Scherf et al.
# Submitted via: CDex 1.51
#
DISCID=9408640b
DTITLE=Pinebox Serenade - Pinebox Serenade
DYEAR=2005
DGENRE=Country
TTITLE0=Lost Pines
TTITLE1=Streets Of Righteousness
TTITLE2=Snow, OK
TTITLE3=Emptiness
TTITLE4=Gravedigger's Blues
TTITLE5=Town Drunk
TTITLE6=Last Breath
TTITLE7=Diamond Bessie
TTITLE8=Black Dress
TTITLE9=Your Turn
TTITLE10=Carried Away
EXTD=YEAR: 2005
EXTT0=
EXTT1=
EXTT2=
EXTT3=
EXTT4=
EXTT5=
EXTT6=
EXTT7=
EXTT8=
EXTT9=
EXTT10=
PLAYORDER=
